<?xml version="1.0" standalone="no"?>
<!DOCTYPE svg PUBLIC "-//W3C//DTD SVG 20010904//EN"
 "http://www.w3.org/TR/2001/REC-SVG-20010904/DTD/svg10.dtd">
<svg version="1.0" xmlns="http://www.w3.org/2000/svg"
 width="1122.000000pt" height="1280.000000pt" viewBox="0 0 1122.000000 1280.000000"
 preserveAspectRatio="xMidYMid meet">
<metadata>
Created by potrace 1.15, written by Peter Selinger 2001-2017
</metadata>
<g transform="translate(0.000000,1280.000000) scale(0.100000,-0.100000)"
fill="#000000" stroke="none">
<path d="M3474 12786 c-133 -22 -288 -78 -399 -144 -469 -280 -676 -833 -505
-1344 16 -48 41 -110 55 -138 25 -50 27 -65 95 -1028 145 -2033 271 -3812 300
-4232 17 -239 33 -453 35 -475 l5 -40 363 0 c199 0 1141 -1 2093 -3 l1732 -2
125 -293 c69 -160 283 -663 477 -1117 342 -802 525 -1231 921 -2157 105 -247
192 -449 193 -450 2 -2 122 44 267 101 561 220 1774 696 1917 751 40 16 71 32
70 35 -70 179 -346 820 -353 820 -9 0 -372 -130 -1075 -385 -96 -35 -178 -60
-182 -57 -4 4 -205 466 -448 1027 -836 1930 -1192 2750 -1203 2775 l-12 25
-520 -3 c-286 -1 -1161 -7 -1943 -13 -783 -6 -1425 -9 -1427 -7 -3 3 -55 668
-55 703 0 13 160 15 1410 15 l1410 0 -2 538 -3 537 -1462 3 c-805 1 -1463 5
-1463 8 0 8 -107 1913 -120 2119 -6 110 -6 161 2 166 5 4 34 9 63 13 29 3 92
17 140 31 354 103 653 400 764 759 99 322 50 677 -135 956 -169 256 -425 431
-728 496 -98 21 -302 26 -402 10z"/>
<path d="M2285 7932 c-901 -468 -1603 -1242 -1983 -2187 -303 -754 -378 -1551
-221 -2350 141 -718 471 -1389 960 -1950 98 -113 328 -341 434 -431 407 -347
869 -611 1365 -783 1174 -406 2447 -270 3530 376 549 328 1031 790 1374 1316
99 152 228 383 224 400 -5 23 -732 1506 -736 1502 -2 -2 -14 -66 -28 -142
-145 -844 -656 -1600 -1396 -2069 -140 -89 -435 -233 -591 -288 -364 -130
-704 -184 -1106 -173 -475 12 -874 114 -1303 334 -725 370 -1279 1026 -1522
1803 -86 276 -126 521 -133 831 -13 513 82 952 301 1405 241 497 574 889 1008
1186 76 52 88 64 88 88 0 16 -20 290 -45 610 -25 320 -45 586 -45 591 0 18
-28 7 -175 -69z"/>
</g>
</svg>
